<svg width="20" height="20" viewBox="0 0 20 20" fill="none" xmlns="http://www.w3.org/2000/svg">
<path fill-rule="evenodd" clip-rule="evenodd" d="M10 0.833252C4.93751 0.833252 0.833344 4.93742 0.833344 9.99992C0.833344 15.0624 4.93751 19.1666 10 19.1666C15.0625 19.1666 19.1667 15.0624 19.1667 9.99992C19.1667 4.93742 15.0625 0.833252 10 0.833252ZM13.0892 8.08909C13.241 7.93192 13.325 7.72142 13.3231 7.50292C13.3212 7.28442 13.2335 7.07541 13.079 6.9209C12.9245 6.7664 12.7155 6.67876 12.497 6.67686C12.2785 6.67496 12.068 6.75895 11.9108 6.91075L10 8.82159L8.08918 6.91075C8.0123 6.83116 7.92035 6.76767 7.81868 6.724C7.71701 6.68033 7.60766 6.65734 7.49701 6.65638C7.38636 6.65542 7.27663 6.6765 7.17422 6.7184C7.0718 6.7603 6.97876 6.82218 6.90051 6.90042C6.82227 6.97867 6.76039 7.07171 6.71849 7.17412C6.67659 7.27654 6.65551 7.38627 6.65647 7.49692C6.65743 7.60757 6.68042 7.71692 6.72409 7.81859C6.76777 7.92026 6.83125 8.01221 6.91084 8.08909L8.82168 9.99992L6.91084 11.9108C6.83125 11.9876 6.76777 12.0796 6.72409 12.1812C6.68042 12.2829 6.65743 12.3923 6.65647 12.5029C6.65551 12.6136 6.67659 12.7233 6.71849 12.8257C6.76039 12.9281 6.82227 13.0212 6.90051 13.0994C6.97876 13.1777 7.0718 13.2395 7.17422 13.2814C7.27663 13.3233 7.38636 13.3444 7.49701 13.3435C7.60766 13.3425 7.71701 13.3195 7.81868 13.2758C7.92035 13.2322 8.0123 13.1687 8.08918 13.0891L10 11.1783L11.9108 13.0891C12.068 13.2409 12.2785 13.3249 12.497 13.323C12.7155 13.3211 12.9245 13.2334 13.079 13.0789C13.2335 12.9244 13.3212 12.7154 13.3231 12.4969C13.325 12.2784 13.241 12.0679 13.0892 11.9108L11.1783 9.99992L13.0892 8.08909Z" fill="black"/>
</svg>
