<svg xmlns="http://www.w3.org/2000/svg" xmlns:xlink="http://www.w3.org/1999/xlink" width="351.334" height="44.353" viewBox="0 0 351.334 44.353">
  <defs>
    <linearGradient id="linear-gradient" y1="0.5" x2="1" y2="0.5" gradientUnits="objectBoundingBox">
      <stop offset="0" stop-color="#25e9a6"/>
      <stop offset="0.485" stop-color="#55c0f0"/>
      <stop offset="1" stop-color="#55c0f0"/>
    </linearGradient>
    <linearGradient id="linear-gradient-2" y1="0.5" x2="1" y2="0.5" gradientUnits="objectBoundingBox">
      <stop offset="0" stop-color="#f0555d"/>
      <stop offset="0.412" stop-color="#f0555d"/>
      <stop offset="1" stop-color="#a225e9"/>
    </linearGradient>
    <linearGradient id="linear-gradient-3" x1="0" y1="0.5" x2="1" y2="0.5" xlink:href="#linear-gradient"/>
    <linearGradient id="linear-gradient-4" x1="0" y1="0.5" x2="1" y2="0.5" xlink:href="#linear-gradient"/>
    <linearGradient id="linear-gradient-5" x1="0" y1="0.5" x2="1" y2="0.5" xlink:href="#linear-gradient-2"/>
  </defs>
  <g id="Group_803" data-name="Group 803" transform="translate(-784 -69)">
    <g id="Group_409" data-name="Group 409" transform="translate(1095.021 69)">
      <path id="Path_3782" data-name="Path 3782" d="M638.314,47.921l14.76-20.376,10.462-3.217L642.818,53.74Zm4.5,5.819-7.994,12.142h-8.853l12.343-18.012" transform="translate(-625.971 -24.328)" fill="url(#linear-gradient)"/>
      <path id="Path_3783" data-name="Path 3783" d="M652.106,59.259,631.388,29.848h8.853L656.61,53.441Zm4.5-5.867L668.954,71.4l-10.462-2.413-6.385-9.729" transform="translate(-628.641 -27.048)" fill="url(#linear-gradient-2)"/>
    </g>
    <path id="Path_3784" data-name="Path 3784" d="M14.681,48.886a19.8,19.8,0,0,1,1.266-6.922,18.559,18.559,0,0,1,9.615-10.477,18.305,18.305,0,0,1,7.973-1.67,17.389,17.389,0,0,1,9.13,2.316A14.8,14.8,0,0,1,48.4,38.166L42.692,42.1a9.8,9.8,0,0,0-1.831-2.72,9.191,9.191,0,0,0-2.316-1.75,10.417,10.417,0,0,0-2.586-.943,12.311,12.311,0,0,0-2.639-.3,10.023,10.023,0,0,0-4.875,1.131A10.724,10.724,0,0,0,25,40.456a12.944,12.944,0,0,0-2.074,4.094,15.491,15.491,0,0,0-.7,4.552,14.835,14.835,0,0,0,.808,4.875A12.962,12.962,0,0,0,25.32,58.1a11.42,11.42,0,0,0,3.556,2.855,9.711,9.711,0,0,0,4.552,1.078,12,12,0,0,0,2.694-.323,10.238,10.238,0,0,0,2.667-1.024,10.079,10.079,0,0,0,2.343-1.8,8.313,8.313,0,0,0,1.724-2.667l6.087,3.5a11.5,11.5,0,0,1-2.612,3.8A16.782,16.782,0,0,1,42.5,66.285a19.52,19.52,0,0,1-4.552,1.723,19.925,19.925,0,0,1-4.74.593,16.286,16.286,0,0,1-7.488-1.724,19.483,19.483,0,0,1-5.844-4.5,20.844,20.844,0,0,1-3.824-6.3A19.642,19.642,0,0,1,14.681,48.886Z" transform="translate(770.319 41.967)" fill="#1e1e2f" stroke="#1e1e2f" stroke-miterlimit="10" stroke-width="2"/>
    <path id="Path_3785" data-name="Path 3785" d="M196.024,64.023A14.622,14.622,0,0,1,185.358,68.6a16.893,16.893,0,0,1-7.084-1.509,17.9,17.9,0,0,1-5.763-4.148,19.784,19.784,0,0,1-3.878-6.222,20.684,20.684,0,0,1-1.428-7.731,19.42,19.42,0,0,1,5.36-13.493,18.848,18.848,0,0,1,5.9-4.148,17.686,17.686,0,0,1,7.38-1.535,17.93,17.93,0,0,1,9.238,2.262,14.652,14.652,0,0,1,5.791,6.087l-5.548,4.094a10.3,10.3,0,0,0-4.067-4.364,11.18,11.18,0,0,0-5.683-1.509,9.694,9.694,0,0,0-4.444,1.024,10.411,10.411,0,0,0-3.448,2.8,13.193,13.193,0,0,0-2.208,4.094,15.236,15.236,0,0,0-.781,4.9,14.462,14.462,0,0,0,.862,5.037,12.822,12.822,0,0,0,2.37,4.067,11.072,11.072,0,0,0,3.582,2.72,10.242,10.242,0,0,0,4.5,1q5.547,0,10.019-5.225V54.111h-7.7v-5.44h13.844V68.334h-6.141v-4.31Z" transform="translate(695.148 41.967)" fill="#1e1e2f" stroke="#1e1e2f" stroke-miterlimit="10" stroke-width="2"/>
    <path id="Path_3786" data-name="Path 3786" d="M256.1,44.085V68.6h-7.434V30.349h5.764l19.931,25.1V30.4H281.8V68.6h-6.033Z" transform="translate(655 41.704)" fill="#1e1e2f" stroke="#1e1e2f" stroke-miterlimit="10" stroke-width="2"/>
    <path id="Path_3787" data-name="Path 3787" d="M336.979,30.349h6.572L358.095,68.6h-7.649L346.89,59.06H333.531l-3.5,9.535H322.38Zm8.564,23.486-5.279-15.029-5.495,15.029Z" transform="translate(618.672 41.704)" fill="#1e1e2f" stroke="#1e1e2f" stroke-miterlimit="10" stroke-width="2"/>
    <path id="Path_3788" data-name="Path 3788" d="M419.113,36.867H406.886V68.6h-7.38V36.867H387.278V30.349h31.835v6.518Z" transform="translate(586.688 41.704)" fill="#1e1e2f" stroke="#1e1e2f" stroke-miterlimit="10" stroke-width="2"/>
    <path id="Path_3789" data-name="Path 3789" d="M459.4,68.6V30.349h7.434V68.6Z" transform="translate(551.145 41.704)" fill="#1e1e2f" stroke="#1e1e2f" stroke-miterlimit="10" stroke-width="2"/>
    <path id="Path_3790" data-name="Path 3790" d="M489.936,30.349l10.343,28.927,10.234-28.927h7.81L503.4,68.6h-6.249L482.125,30.349Z" transform="translate(539.943 41.704)" fill="#1e1e2f" stroke="#1e1e2f" stroke-miterlimit="10" stroke-width="2"/>
    <path id="Path_3791" data-name="Path 3791" d="M588.13,62.078V68.6H561.573V30.349h26.072v6.518H569.007v9.212h16.106v6.033H569.007v9.966H588.13Z" transform="translate(500.788 41.704)" fill="#1e1e2f" stroke="#1e1e2f" stroke-miterlimit="10" stroke-width="2"/>
    <g id="Group_411" data-name="Group 411" transform="translate(821.79 71.024)">
      <g id="Group_410" data-name="Group 410" transform="translate(19.825 0.396)">
        <path id="Path_3792" data-name="Path 3792" d="M143.062,45.323a3.028,3.028,0,0,1,.1-.3c.033-.09.068-.179.1-.269a6.589,6.589,0,0,0-2.441-7.35,4.685,4.685,0,0,0,.078-2.449,4.915,4.915,0,0,0-1.962-2.975,4.846,4.846,0,0,0-4.035-.831,4.783,4.783,0,0,0-3.243-1.98,6.03,6.03,0,0,0-.889-.066,5.592,5.592,0,0,0-4.34,1.956l-.12.148.144,34.687v.185l.115.144.083.1a1.276,1.276,0,0,1,.081.1,5.012,5.012,0,0,0,9.142-2.5,5.725,5.725,0,0,0,3.058-1.912,5.837,5.837,0,0,0,1.252-5.346l.115-.135a7.585,7.585,0,0,0,.711-.927,4.933,4.933,0,0,0,.462-3.956,4.875,4.875,0,0,0,2.1-4.02,4.966,4.966,0,0,0-.521-2.3S143.061,45.328,143.062,45.323Zm-.987.429a3.955,3.955,0,0,1,.438,1.855,3.818,3.818,0,0,1-1.717,3.219c-.076-.028-.151-.055-.224-.087a3.34,3.34,0,0,1-2.081-2.059,4.532,4.532,0,0,1-.14-1.308c0-.421-.16-.722-.523-.772s-.629.17-.7.6c-.031.177-.044.357-.053.431a4.653,4.653,0,0,0,3.39,4.377,3.879,3.879,0,0,1-.355,3.042,6.713,6.713,0,0,1-.615.8l-.152.178c-.025.03-.051.064-.077.1a.781.781,0,0,0-.341.466,2.2,2.2,0,0,1-1.289,1.469,7.952,7.952,0,0,1-1.661.431c-.485.079-.752.262-.736.655s.3.6.884.582a5.276,5.276,0,0,0,2.429-.771,3.936,3.936,0,0,0,.76-.624,4.777,4.777,0,0,1-1.193,3,4.71,4.71,0,0,1-2.649,1.6.772.772,0,0,0-.648.786,3.967,3.967,0,0,1-2.277,3.458c-.011-.181-.055-.364-.048-.543a13,13,0,0,1,.137-1.9,1.346,1.346,0,0,1,1.235-1.184.565.565,0,0,0,.512-.531.53.53,0,0,0-.341-.611,1.037,1.037,0,0,0-.6-.028c-.363.106-.708.273-1.087.425l-.191-.261a5.106,5.106,0,0,0-3.133-2.037.591.591,0,0,0-.731.418.609.609,0,0,0,.423.765c.1.032.21.049.314.079a4.038,4.038,0,0,1,2.391,1.858.711.711,0,0,1,.067.675,6.127,6.127,0,0,0-.144,3.068.629.629,0,0,0,.038.138,3.749,3.749,0,0,1-.506.034,3.949,3.949,0,0,1-3.263-1.722c-.029-.041-.059-.08-.095-.125l-.08-19.216a4.046,4.046,0,0,0,2.9,1.131c.31-.031.622-.052.93-.093.448-.061.679-.335.623-.716s-.368-.544-.82-.5a6.718,6.718,0,0,1-1,.045,2.8,2.8,0,0,1-2.445-1.9,3.791,3.791,0,0,0-.194-.349c-.063-.1.027.018,0,0l-.053-12.517a4.559,4.559,0,0,1,3.39-1.42,4.909,4.909,0,0,1,.729.054,3.722,3.722,0,0,1,2.364,1.333,3.586,3.586,0,0,0-1.538,2.819c.031.185.06.461.127.727a.626.626,0,0,0,.761.533c.369-.087.532-.408.421-.852a1.773,1.773,0,0,1,.327-1.6,6.692,6.692,0,0,1,.709-.71.8.8,0,0,0,.176-.237,1.183,1.183,0,0,0,.209-.031,3.813,3.813,0,0,1,3.262.642,3.869,3.869,0,0,1,1.542,2.35,3.631,3.631,0,0,1-.028,1.771c-.2.005-.395.059-.591.051a12.781,12.781,0,0,1-1.895-.137,1.346,1.346,0,0,1-1.184-1.234.564.564,0,0,0-.53-.512.53.53,0,0,0-.612.341,1.037,1.037,0,0,0-.027.6c.105.363.272.709.423,1.086-.068.051-.163.122-.26.191a5.1,5.1,0,0,0-2.036,3.133.59.59,0,0,0,.417.732.609.609,0,0,0,.765-.423c.033-.1.049-.211.08-.314a4.029,4.029,0,0,1,1.858-2.39.708.708,0,0,1,.674-.067,6.134,6.134,0,0,0,3.068.144c.02,0,.038-.01.056-.014.039.031.078.062.124.094a5.524,5.524,0,0,1,2.085,6.175c-.025.074-.053.147-.081.22a3.985,3.985,0,0,0-.14.412A1.042,1.042,0,0,0,142.075,45.752Z" transform="translate(-126.313 -29.099)" fill-rule="evenodd" fill="url(#linear-gradient-3)"/>
        <path id="Path_3793" data-name="Path 3793" d="M140.329,64.271c-.166.067-.326.152-.392.184A4.709,4.709,0,0,0,138.09,69.9a.583.583,0,0,0,.7.372.6.6,0,0,0,.473-.637c-.016-.19-.07-.377-.1-.566a3.343,3.343,0,0,1,.64-2.857,4.472,4.472,0,0,1,1.034-.814c.357-.222.526-.519.376-.854A.616.616,0,0,0,140.329,64.271Z" transform="translate(-132.008 -46.395)" fill-rule="evenodd" fill="url(#linear-gradient-4)"/>
      </g>
      <path id="Path_3794" data-name="Path 3794" d="M106.038,30.365c-1.31-.205-3-.395-4.318-.579a.323.323,0,0,1-.285-.235,2.044,2.044,0,0,0-3.86.309.668.668,0,0,1-.2.31c-1.505,1.32-3.016,2.632-4.522,3.95a.249.249,0,0,1-.367.024,2.044,2.044,0,0,0-3.186,1.445,1.955,1.955,0,0,0,.964,1.975.241.241,0,0,1,.127.329c-.1.281-.192.564-.287.846-.415,1.238-.835,2.476-1.242,3.717a.517.517,0,0,1-.336.366,2.021,2.021,0,0,0-1.3,2.011,2.082,2.082,0,0,0,1.436,1.838.489.489,0,0,1,.258.219c.448.879.881,1.765,1.328,2.646.077.151.068.227-.077.33a1.952,1.952,0,0,0-.873,1.918,1.984,1.984,0,0,0,1.261,1.647.324.324,0,0,1,.172.206c.176,1.31.339,2.623.512,3.934a.319.319,0,0,1-.205.378A1.984,1.984,0,0,0,90,60.162a2.021,2.021,0,0,0,2.2,1.617.421.421,0,0,1,.359.137q.9.911,1.814,1.811a2.047,2.047,0,0,1,.535.793,2.021,2.021,0,0,0,2.98,1.075.436.436,0,0,1,.334-.023q1.655.694,3.3,1.413a.42.42,0,0,1,.2.218,2.059,2.059,0,0,0,3.1,1.073c.452-.3,1.116-.724,1.267-1.308Zm-4.646.919a.218.218,0,0,1,.273-.128q1.692.25,3.385.488c.134.018.148.024.163.2,0,1.073,0,2.167-.031,3.235-.02.667,0,1.3,0,1.972a.323.323,0,0,1-.174.222.241.241,0,0,1-.19-.013,1.779,1.779,0,0,0-1.172.077.245.245,0,0,1-.3-.064c-.546-.55-1.1-1.093-1.643-1.646a.626.626,0,0,1-.151-.273,2,2,0,0,0-1.144-1.377.229.229,0,0,1-.16-.238c0-.427-.005-.853.009-1.279a.3.3,0,0,1,.143-.218A2.079,2.079,0,0,0,101.392,31.284Zm.063,24.428a.481.481,0,0,1-.24-.161c-.536-.7-1.062-1.409-1.6-2.111-.111-.145-.032-.21.074-.288q1.474-1.1,2.945-2.2c.61-.456,1.215-.92,1.835-1.364a2.441,2.441,0,0,1,.513-.218l.061.061v7.293c0,.282,0,.284-.277.284-.563,0-1.128,0-1.691,0a.27.27,0,0,1-.292-.18A2.022,2.022,0,0,0,101.454,55.713Zm.344,2.6a1.1,1.1,0,1,1-.2-1.537A1.1,1.1,0,0,1,101.8,58.31Zm-5.771-12.4a.282.282,0,0,1,.193.271c.129,1.194.266,2.387.4,3.58.039.347.075.693.113,1.055.041.137-.029.219-.163.285a1.9,1.9,0,0,0-.8.743.175.175,0,0,1-.259.087c-.678-.278-1.362-.542-2.04-.819a.325.325,0,0,1-.167-.17,2.117,2.117,0,0,0-1.416-1.37.382.382,0,0,1-.185-.189c-.455-.9-.9-1.8-1.357-2.7a.176.176,0,0,1,.068-.267,1.945,1.945,0,0,0,.783-.984.3.3,0,0,1,.3-.214q1.539-.183,3.075-.393a.4.4,0,0,1,.488.234A1.828,1.828,0,0,0,96.027,45.907Zm-.11-2.479a1.1,1.1,0,1,1,.2,1.537A1.1,1.1,0,0,1,95.918,43.428Zm.658,8.826a1.1,1.1,0,1,1,.2,1.536A1.1,1.1,0,0,1,96.576,52.254Zm1.687-1.241a.274.274,0,0,1-.148-.182c-.179-1.553-.349-3.106-.521-4.672-.045-.152.037-.23.167-.328a6.886,6.886,0,0,0,.755-.674c.091-.092.151-.128.269-.069q1.719.86,3.438,1.713c.1.052.165.1.133.243a1.857,1.857,0,0,0,.474,1.754c.135.15.113.221-.033.329q-1.707,1.267-3.4,2.546c-.115.087-.189.088-.282-.03A2.046,2.046,0,0,0,98.263,51.013Zm4.747-5.345q-1.994-1-3.994-1.986a.448.448,0,0,1-.252-.289,1.935,1.935,0,0,0-.8-1.049c-.133-.089-.138-.165-.071-.3.678-1.343,1.347-2.692,2.03-4.033a.564.564,0,0,1,.276-.225,2.227,2.227,0,0,0,.864-.574c.1-.114.17-.117.276-.009.343.351.7.69,1.038,1.046a.322.322,0,0,1,.056.276,2.049,2.049,0,0,0,2.1,2.761c.154-.012.3-.055.49-.09v4.282a1.137,1.137,0,0,1-.18-.019,1.915,1.915,0,0,0-1.5.2A.308.308,0,0,1,103.011,45.668Zm-4.29-10.649a1.1,1.1,0,1,1,.2,1.536A1.094,1.094,0,0,1,98.721,35.019Zm0-5.333a1.1,1.1,0,1,1,.2,1.536A1.095,1.095,0,0,1,98.721,29.685Zm-5.494,6.922a1.87,1.87,0,0,0,.165-.954.416.416,0,0,1,.118-.291q2.094-1.84,4.2-3.665a1.329,1.329,0,0,1,.111-.086c.344.23.667.441.983.662a.231.231,0,0,1,.064.167c.006.441.011.881,0,1.322a.281.281,0,0,1-.141.2,2.029,2.029,0,0,0-.3,3.567c.108.078.133.145.074.264q-.854,1.693-1.7,3.388c-.025.05-.06.094-.116.181-.131-.16-.244-.3-.352-.434-1.015-1.3-2.028-2.606-3.048-3.9A.333.333,0,0,1,93.227,36.608Zm-2.779-1.45a1.1,1.1,0,1,1,.2,1.537A1.1,1.1,0,0,1,90.448,35.158Zm-.217,7.491q.447-1.321.89-2.644.321-.959.641-1.919c.016-.047.029-.1.05-.14.1-.228.26-.251.414-.054q.929,1.185,1.853,2.372c.482.618.96,1.238,1.449,1.849.121.152.095.228-.031.369-.216.24-.38.522-.575.782-.051.067-.124.152-.2.161-.94.126-1.882.239-2.823.356-.2.025-.395.056-.65.092a.685.685,0,0,1-.174-.153,2.056,2.056,0,0,0-.726-.739A.237.237,0,0,1,90.231,42.648Zm-.023,2.722a1.1,1.1,0,1,1-.2-1.537A1.1,1.1,0,0,1,90.208,45.37Zm.515,7.035a1.1,1.1,0,1,1,1.537-.2A1.095,1.095,0,0,1,90.723,52.406Zm2.288,8.006a1.1,1.1,0,1,1-.2-1.537A1.095,1.095,0,0,1,93.011,60.412Zm.351-2.223a5.729,5.729,0,0,1-.565-.338c-.069-.046-.159-.118-.169-.187-.179-1.331-.346-2.664-.515-4,0-.015,0-.029,0-.044l-.044-.04c.065-.074.116-.173.2-.219a2.062,2.062,0,0,0,.8-.748.185.185,0,0,1,.276-.087c.671.277,1.35.535,2.021.812a.426.426,0,0,1,.195.222,2.01,2.01,0,0,0,2.083,1.379,3.271,3.271,0,0,0,.926-.292c.135-.054.209-.067.3.058.277.379.562.752.847,1.125.069.091.069.159-.024.234a2.131,2.131,0,0,0-.677.915.349.349,0,0,1-.214.178c-1.342.3-2.685.591-4.028.885-.353.078-.706.172-1.064.232A.623.623,0,0,1,93.362,58.189ZM97.7,64.463a1.1,1.1,0,1,1-.2-1.537A1.1,1.1,0,0,1,97.7,64.463ZM98.137,62c-.085.127-.15.15-.292.07a1.994,1.994,0,0,0-2.518.374c-.12.126-.191.123-.308,0q-.626-.641-1.27-1.267a.2.2,0,0,1-.031-.309,1.894,1.894,0,0,0,.354-1.1c0-.128.045-.183.178-.212,1.239-.269,2.476-.547,3.714-.823.285-.063.57-.125.855-.19a.277.277,0,0,1,.332.145,6.62,6.62,0,0,0,.543.623c.041.045.089.085.137.131-.034.057-.056.1-.083.141C99.211,60.393,98.67,61.195,98.137,62Zm4.375,2.9a3.735,3.735,0,0,0-.572.593c-.074.084-.118.124-.242.07-.9-.391-1.8-.77-2.707-1.152-.115-.048-.187-.108-.146-.258a.914.914,0,0,0,.024-.38,2.377,2.377,0,0,1,.226-.742c.528-.773,1.044-1.557,1.565-2.335.039-.057.081-.113.154-.213.222.49.423.934.622,1.38.393.879.782,1.762,1.179,2.64A.265.265,0,0,1,102.512,64.9Zm2.022,2.293a1.1,1.1,0,1,1-.2-1.537A1.1,1.1,0,0,1,104.533,67.2Zm.511-2.71v.489c-.3-.138-.576-.253-.837-.393a.487.487,0,0,1-.167-.235c-.5-1.108-.986-2.218-1.48-3.327-.188-.422-.373-.844-.569-1.262-.079-.169-.094-.278.1-.4a1.64,1.64,0,0,0,.674-.781.318.318,0,0,1,.361-.213q.835.015,1.671,0c.195,0,.253.051.252.25C105.04,60.575,105.045,62.531,105.045,64.487Zm.1-16.433a1.1,1.1,0,1,1-.2-1.537A1.094,1.094,0,0,1,105.148,48.054Zm0-8.067a1.1,1.1,0,1,1-.2-1.537A1.1,1.1,0,0,1,105.148,39.987Z" transform="translate(-87.223 -28.318)" fill-rule="evenodd" fill="url(#linear-gradient-5)"/>
    </g>
  </g>
</svg>
